<svg xmlns="http://www.w3.org/2000/svg" viewBox="0 0 32 32"><defs><style>.cls-1{fill:#97005b;}.cls-2{fill:#fff;}</style></defs><g id="Base"><path class="cls-1" d="M0,21.33A10.67,10.67,0,0,0,10.67,32H21.33A10.67,10.67,0,0,0,32,21.33V10.67A10.67,10.67,0,0,0,21.33,0H10.67A10.67,10.67,0,0,0,0,10.67"/></g><g id="Text"><path class="cls-2" d="M14.05,18.54c-.24.55-.52,1.21-.82,2s-.62,1.57-1,2.41-.73,1.66-1.13,2.48a16,16,0,0,1-1.25,2.19,8,8,0,0,1-1.34,1.58,2.19,2.19,0,0,1-1.42.6,2.42,2.42,0,0,1-1-.18,1.61,1.61,0,0,1-.6-.47,1.69,1.69,0,0,1-.31-.63,3,3,0,0,1-.08-.65,3.65,3.65,0,0,1,.14-1,6,6,0,0,1,.36-.9l7.49-13.77A7.48,7.48,0,0,1,14,10.87a4.26,4.26,0,0,1,.82-.73,2,2,0,0,1,.68-.28,3.38,3.38,0,0,1,.49,0,1,1,0,0,1,.64.25,1.08,1.08,0,0,1,.29.88,6.37,6.37,0,0,1-.33,1.72,17.23,17.23,0,0,1-1.23,2.82,16.21,16.21,0,0,0,3-.52,10.47,10.47,0,0,0,2.66-1.11A6.07,6.07,0,0,0,23,12.15a3.91,3.91,0,0,0,.72-2.34,6.65,6.65,0,0,0-.38-2.23A5.48,5.48,0,0,0,22.21,5.7,5.32,5.32,0,0,0,20.4,4.41a6,6,0,0,0-2.48-.48,13.12,13.12,0,0,0-3.29.36,9.36,9.36,0,0,0-2.36,1,6.56,6.56,0,0,0-1.65,1.35A11.19,11.19,0,0,0,9.47,8.13c-.32.52-.6,1-.85,1.55A9.85,9.85,0,0,1,7.85,11a3.76,3.76,0,0,1-.91,1,2.1,2.1,0,0,1-1.25.36,1.83,1.83,0,0,1-1.41-.49,1.9,1.9,0,0,1-.46-1.38,4.71,4.71,0,0,1,.49-2A9.42,9.42,0,0,1,5.69,6.35,14.43,14.43,0,0,1,7.87,4.29a15.62,15.62,0,0,1,2.88-1.74,17.5,17.5,0,0,1,3.49-1.22,16.54,16.54,0,0,1,4-.46A12.72,12.72,0,0,1,22,1.42a9.57,9.57,0,0,1,3.2,1.67,8.22,8.22,0,0,1,2.21,2.79,8.6,8.6,0,0,1,.83,3.91,7.13,7.13,0,0,1-1,3.7,9.08,9.08,0,0,1-2.66,2.8A13,13,0,0,1,20.71,18a16.94,16.94,0,0,1-4.61.62l-1,0A8.76,8.76,0,0,1,14.05,18.54Z"/><g id="PlusHor"><path class="cls-2" d="M24.48,22.16c.38,0,1-.05,1.74-.05,2.31,0,3.4.28,3.28.83a3,3,0,0,1-1,1.44,2.52,2.52,0,0,1-1.53.8l-2.34-.05H23.27L21,25.26l-4.26.3c-.56,0-.8-.21-.71-.61a4,4,0,0,1,.35-1,2.46,2.46,0,0,1,.49-.66,2.24,2.24,0,0,1,.81-.53,33.91,33.91,0,0,1,4.47-.47Z"/></g><g id="PlusVert"><path class="cls-2" d="M21.45,23l.43-.89c.12-.34.32-.87.61-1.58s.51-1.26.65-1.63c.06-.15.39-.3,1-.43a7.88,7.88,0,0,1,1.66-.2c.37,0,.54.3.52.9a7.35,7.35,0,0,1-.71,2.47l-.6,1.3c-.25.59-1,2.15-1,2.15l-2,4.41c-.08.19-.33.37-.77.54a4.62,4.62,0,0,1-1.65.25c-.67,0-1-.18-1-.54a.7.7,0,0,1,.12-.4l1.8-4.17Z"/></g></g></svg>