<svg xmlns="http://www.w3.org/2000/svg" viewBox="0 0 24 24"><path d="M3,5V8A1,1,0,0,0,5,8V6A1,1,0,0,1,6,5H8A1,1,0,0,0,8,3H5A2,2,0,0,0,3,5ZM4,15a1,1,0,0,0-1,1v3a2,2,0,0,0,2,2H8a1,1,0,0,0,0-2H6a1,1,0,0,1-1-1V16A1,1,0,0,0,4,15Zm15,3a1,1,0,0,1-1,1H16a1,1,0,0,0,0,2h3a2,2,0,0,0,2-2V16a1,1,0,0,0-2,0ZM19,3H16a1,1,0,0,0,0,2h2a1,1,0,0,1,1,1V8a1,1,0,0,0,2,0V5A2,2,0,0,0,19,3ZM8.91,16.41a1,1,0,0,1-1.82-.82l4-9a1,1,0,0,1,1.82,0l4,9a1,1,0,0,1-.5,1.32A1,1,0,0,1,16,17a1,1,0,0,1-.91-.59L14,14H10m2-4.54L10.87,12h2.26Z"/></svg>