<svg  xmlns="http://www.w3.org/2000/svg"  viewBox="0 0 24 24"><path d="M19,3H5C3.9,3,3,3.9,3,5v14c0,1.1,0.9,2,2,2h14c1.1,0,2-0.9,2-2V5C21,3.9,20.1,3,19,3z M13,11c0,0.6-0.4,1-1,1s-1-0.4-1-1	s0.4-1,1-1S13,10.4,13,11z M13,14c0,0.6-0.4,1-1,1s-1-0.4-1-1s0.4-1,1-1S13,13.4,13,14z M17,17c-0.6,0-1-0.4-1-1V9.6l-0.6,0.3	c-0.5,0.2-1.1,0-1.3-0.4c-0.2-0.5,0-1.1,0.4-1.3l2-1c0.3-0.2,0.7-0.1,1,0C17.8,7.3,18,7.7,18,8v8C18,16.6,17.6,17,17,17z M8,17	c-0.6,0-1-0.4-1-1V9.6L6.4,9.9c-0.5,0.2-1.1,0-1.3-0.4s0-1.1,0.4-1.3l2-1c0.3-0.2,0.7-0.1,1,0C8.8,7.3,9,7.7,9,8v8	C9,16.6,8.6,17,8,17z"/></svg>
