<svg xmlns="http://www.w3.org/2000/svg" viewBox="0 0 96 96"><path d="M21.48,74.93c-.34.75-.72,1.65-1.13,2.71s-.86,2.16-1.34,3.3-1,2.29-1.55,3.41a23.71,23.71,0,0,1-1.72,3,11.31,11.31,0,0,1-1.85,2.16,3,3,0,0,1-2,.83,3.22,3.22,0,0,1-1.37-.26,2.27,2.27,0,0,1-.83-.64,2.53,2.53,0,0,1-.41-.86,3.6,3.6,0,0,1-.12-.9,4.41,4.41,0,0,1,.2-1.32,7.51,7.51,0,0,1,.49-1.23L20.19,66.23a11.15,11.15,0,0,1,1.27-1.86,5.61,5.61,0,0,1,1.13-1,2.9,2.9,0,0,1,.93-.39,4.92,4.92,0,0,1,.67-.07,1.4,1.4,0,0,1,.89.34,1.55,1.55,0,0,1,.4,1.22A8.53,8.53,0,0,1,25,66.84a23.21,23.21,0,0,1-1.69,3.87A22.41,22.41,0,0,0,27.47,70a14.36,14.36,0,0,0,3.66-1.52,8.42,8.42,0,0,0,2.62-2.35,5.37,5.37,0,0,0,1-3.21,9,9,0,0,0-.53-3.07,7.62,7.62,0,0,0-1.53-2.58,7.37,7.37,0,0,0-2.48-1.77,8.3,8.3,0,0,0-3.41-.66,17.6,17.6,0,0,0-4.53.5A12.45,12.45,0,0,0,19,56.64a9.35,9.35,0,0,0-2.27,1.85,16.29,16.29,0,0,0-1.57,2.12q-.66,1.08-1.17,2.13A15.06,15.06,0,0,1,13,64.59a5.18,5.18,0,0,1-1.25,1.3,2.89,2.89,0,0,1-1.72.5A2.58,2.58,0,0,1,8,65.72a2.7,2.7,0,0,1-.63-1.91,6.52,6.52,0,0,1,.67-2.7A12.83,12.83,0,0,1,10,58.17a19.48,19.48,0,0,1,3-2.83,21.41,21.41,0,0,1,4-2.41,24.81,24.81,0,0,1,4.79-1.68,23.1,23.1,0,0,1,5.47-.63,17.49,17.49,0,0,1,5.17.77,13.13,13.13,0,0,1,4.39,2.29,11.38,11.38,0,0,1,3.05,3.83A12,12,0,0,1,41,62.9,9.7,9.7,0,0,1,39.59,68a12.24,12.24,0,0,1-3.65,3.84,18,18,0,0,1-5.3,2.41,23.11,23.11,0,0,1-6.34.85q-.71,0-1.41,0A13,13,0,0,1,21.48,74.93Z"/><path class="cls-1" d="M40.3,81.59c-.19.41-.38.89-.57,1.43a4.55,4.55,0,0,0-.28,1.47,1.1,1.1,0,0,0,.16.64.67.67,0,0,0,.61.24A4,4,0,0,0,41.63,85a15.16,15.16,0,0,0,1.83-.89c.65-.36,1.33-.79,2-1.26s1.41-1,2.11-1.48,1.36-1,2-1.53,1.2-1,1.7-1.41a1.51,1.51,0,0,1,.52-.27,2.05,2.05,0,0,1,.51-.08,1.16,1.16,0,0,1,.88.38,1.41,1.41,0,0,1,.35,1,2.67,2.67,0,0,1-.37,1.26,4.22,4.22,0,0,1-1.32,1.37c-1.15,1.06-2.3,2.06-3.47,3a33.88,33.88,0,0,1-3.47,2.51,19.18,19.18,0,0,1-3.44,1.74,9.34,9.34,0,0,1-3.32.64,5,5,0,0,1-1.84-.3,3,3,0,0,1-1.18-.8,3.11,3.11,0,0,1-.63-1.21,5.88,5.88,0,0,1-.19-1.48,10,10,0,0,1,.39-2.7A16.65,16.65,0,0,1,35.66,81q.95-2.1,1.9-4.17c.65-1.37,1.24-2.64,1.78-3.78l8.13-17.32a3.05,3.05,0,0,1,1.31-1.48,3.44,3.44,0,0,1,1.65-.43,2.66,2.66,0,0,1,1.52.46,1.64,1.64,0,0,1,.68,1.47,2.59,2.59,0,0,1-.23,1,11.18,11.18,0,0,1-.57,1.16c-.45.84-1,1.87-1.6,3.09s-1.28,2.54-2,4-1.43,2.92-2.18,4.47S44.6,72.52,43.89,74s-1.37,2.86-2,4.17Z"/><path class="cls-1" d="M78.57,82.93a21.64,21.64,0,0,1-2.75,2.62,27.48,27.48,0,0,1-3.24,2.27,21.36,21.36,0,0,1-3.27,1.6,8.44,8.44,0,0,1-2.9.6,3,3,0,0,1-2.1-.73,3.21,3.21,0,0,1-.8-2.47A11.35,11.35,0,0,1,63.94,84a14.74,14.74,0,0,1-1.75,2.12,14,14,0,0,1-2.39,2,12.7,12.7,0,0,1-3,1.44,11.4,11.4,0,0,1-3.62.55,7.41,7.41,0,0,1-1.71-.19A3.8,3.8,0,0,1,50,89.19,3.26,3.26,0,0,1,49,88a4.35,4.35,0,0,1-.37-1.92s0-.3.1-.82a15.83,15.83,0,0,1,.69-2.5c.38-1.14,1-2.61,1.78-4.42s2-4,3.41-6.58A3.79,3.79,0,0,1,56,70.27a3,3,0,0,1,1.6-.44,3.44,3.44,0,0,1,.77.09,2.91,2.91,0,0,1,.76.29,1.84,1.84,0,0,1,.56.51,1.28,1.28,0,0,1,.22.72,1.44,1.44,0,0,1-.09.51,5.8,5.8,0,0,1-.57,1.19c-.3.49-.64,1.06-1,1.69s-.81,1.32-1.25,2.06-.84,1.49-1.22,2.28a20.35,20.35,0,0,0-1,2.4A8.7,8.7,0,0,0,54.27,84a1.58,1.58,0,0,0,.27.89,1,1,0,0,0,.88.4,6.22,6.22,0,0,0,3.33-1,13.52,13.52,0,0,0,2.93-2.4,22.63,22.63,0,0,0,2.43-3.09c.73-1.1,1.33-2.11,1.81-3a14.08,14.08,0,0,0,.9-2,18.31,18.31,0,0,1,.85-1.93,5.59,5.59,0,0,1,1-1.48,2,2,0,0,1,1.47-.59,1.93,1.93,0,0,1,1.53.62,2.09,2.09,0,0,1,.57,1.47,3.68,3.68,0,0,1-.36,1.33c-.25.57-.55,1.21-.92,1.94s-.76,1.5-1.19,2.32S69,79.14,68.62,80a23,23,0,0,0-.91,2.5,8,8,0,0,0-.36,2.27c0,.64.39,1,1.18,1a6,6,0,0,0,2.07-.48,14.46,14.46,0,0,0,2.59-1.36,23,23,0,0,0,2.71-2,17.42,17.42,0,0,0,2.4-2.55Z"/><path class="cls-1" d="M82.6,74.23a15.92,15.92,0,0,1,2.93,2,13.94,13.94,0,0,1,2.19,2.32A10.6,10.6,0,0,1,89.09,81a7.1,7.1,0,0,1,.47,2.47,4.56,4.56,0,0,1-.88,2.75,7.48,7.48,0,0,1-2.28,2.07,11.79,11.79,0,0,1-3.22,1.29,15.68,15.68,0,0,1-3.67.44,11.61,11.61,0,0,1-2.71-.31,8.48,8.48,0,0,1-2.4-.95,6.56,6.56,0,0,1-1.87-1.65,6.13,6.13,0,0,1-1.1-2.41,1.27,1.27,0,0,1-.05-.35,1.74,1.74,0,0,1,.51-1.25A1.56,1.56,0,0,1,73,82.58a2.39,2.39,0,0,1,.66.11.87.87,0,0,1,.55.48,4,4,0,0,0,1,1.16,6.67,6.67,0,0,0,1.41.87,8.22,8.22,0,0,0,1.65.56A7.37,7.37,0,0,0,80,86a8.1,8.1,0,0,0,1.65-.16,4.23,4.23,0,0,0,1.4-.51,2.69,2.69,0,0,0,1-.88,2.4,2.4,0,0,0,.35-1.32,5.28,5.28,0,0,0-.62-2.52,9,9,0,0,0-1.6-2.14,15,15,0,0,0-2.22-1.82C79,76,78.21,75.5,77.39,75a1.76,1.76,0,0,1-.4-.47,1.37,1.37,0,0,1-.27-.79.73.73,0,0,1,.16-.51,14.18,14.18,0,0,1,1-1.16A10.27,10.27,0,0,1,79.08,71a5.94,5.94,0,0,1,1.4-.81A4.17,4.17,0,0,1,82,69.85a3.9,3.9,0,0,1,1.1.16,3,3,0,0,1,.86.42,2.42,2.42,0,0,1,.55.56,1.12,1.12,0,0,1,.2.58,1.5,1.5,0,0,1-.19.73,3.27,3.27,0,0,1-.49.67,8.89,8.89,0,0,1-.7.64C83.11,73.83,82.85,74,82.6,74.23Z"/><path class="cls-1" d="M17.88,28.2c-.34.75-.72,1.65-1.13,2.71s-.86,2.16-1.34,3.3-1,2.28-1.55,3.41a22.89,22.89,0,0,1-1.71,3,11.12,11.12,0,0,1-1.86,2.17,3,3,0,0,1-1.94.83A3.16,3.16,0,0,1,7,43.38a2.23,2.23,0,0,1-.84-.64,2.53,2.53,0,0,1-.41-.86,3.6,3.6,0,0,1-.12-.9,4.41,4.41,0,0,1,.2-1.32,6.46,6.46,0,0,1,.5-1.23L16.59,19.49a10.82,10.82,0,0,1,1.28-1.85,5.06,5.06,0,0,1,1.12-1,2.51,2.51,0,0,1,.93-.39,3.71,3.71,0,0,1,.67-.07,1.34,1.34,0,0,1,.89.34,1.51,1.51,0,0,1,.4,1.22,8.53,8.53,0,0,1-.46,2.36A22.73,22.73,0,0,1,19.73,24a23.28,23.28,0,0,0,4.14-.71,14.36,14.36,0,0,0,3.66-1.52,8.42,8.42,0,0,0,2.62-2.35,5.37,5.37,0,0,0,1-3.21,9,9,0,0,0-.53-3.07,7.62,7.62,0,0,0-1.53-2.58,7.24,7.24,0,0,0-2.48-1.77,8.3,8.3,0,0,0-3.41-.66,18.09,18.09,0,0,0-4.53.49,13,13,0,0,0-3.25,1.31,9.13,9.13,0,0,0-2.27,1.85,16.29,16.29,0,0,0-1.57,2.12c-.44.72-.83,1.43-1.17,2.12a14.5,14.5,0,0,1-1.06,1.86,5,5,0,0,1-1.25,1.3,2.86,2.86,0,0,1-1.71.5A2.55,2.55,0,0,1,4.44,19a2.66,2.66,0,0,1-.63-1.9,6.45,6.45,0,0,1,.67-2.7,12.89,12.89,0,0,1,1.91-2.94,19,19,0,0,1,3-2.84,21.94,21.94,0,0,1,4-2.4,24.67,24.67,0,0,1,4.8-1.68,23,23,0,0,1,5.46-.63,17.49,17.49,0,0,1,5.17.77A13,13,0,0,1,33.16,7a11.28,11.28,0,0,1,3.05,3.83,12,12,0,0,1,1.14,5.38A9.67,9.67,0,0,1,36,21.25a12,12,0,0,1-3.65,3.84A17.76,17.76,0,0,1,27,27.51a23.11,23.11,0,0,1-6.34.85q-.7,0-1.41,0A13.43,13.43,0,0,1,17.88,28.2Z"/><path class="cls-1" d="M43.88,23.09a9.62,9.62,0,0,1,2.18.27,7,7,0,0,1,2.17.91A5.4,5.4,0,0,1,49.88,26a4.88,4.88,0,0,1,.66,2.62,9.42,9.42,0,0,1-.22,1.84,14.44,14.44,0,0,1-.64,2.16,1.5,1.5,0,0,0,.61.46,2.13,2.13,0,0,0,.76.13,3,3,0,0,0,1.24-.32A9.57,9.57,0,0,0,53.7,32a16.45,16.45,0,0,0,1.46-1.16c.48-.43.93-.86,1.36-1.29s.82-.83,1.17-1.22l.88-1A.62.62,0,0,1,59,27.2a.83.83,0,0,1,.67.39,1.74,1.74,0,0,1,.3,1.09,3.93,3.93,0,0,1-.42,1.61A6,6,0,0,1,58,32.2l-1.48,1.61a19.18,19.18,0,0,1-1.77,1.72,12.6,12.6,0,0,1-2,1.37,4.24,4.24,0,0,1-2,.56,4.44,4.44,0,0,1-1.36-.21,5.18,5.18,0,0,1-1.33-.7,16.72,16.72,0,0,1-2.2,2.74,13.54,13.54,0,0,1-2.75,2.12,14,14,0,0,1-3.28,1.38,13.76,13.76,0,0,1-3.75.5,6.11,6.11,0,0,1-1.74-.3A5.83,5.83,0,0,1,31,40.23a5.46,5.46,0,0,1-.62-2.69A12,12,0,0,1,30.69,35a17.52,17.52,0,0,1,1.06-3.1,20,20,0,0,1,1.8-3.17,14.69,14.69,0,0,1,2.59-2.82,12.6,12.6,0,0,1,3.44-2A11.59,11.59,0,0,1,43.88,23.09Zm-1.4,4.73a5.06,5.06,0,0,0-2.43.63A7.36,7.36,0,0,0,38,30.12a8.43,8.43,0,0,0-1.44,2.33A7.1,7.1,0,0,0,36,35.12a7.56,7.56,0,0,0,.08,1.12,3.6,3.6,0,0,0,.33,1.13,2.3,2.3,0,0,0,.74.87,2.17,2.17,0,0,0,1.29.35,4.8,4.8,0,0,0,2.4-.66,7.77,7.77,0,0,0,2.09-1.72,8.84,8.84,0,0,0,1.45-2.4,7.42,7.42,0,0,0,.53-2.71A10.94,10.94,0,0,0,44.86,30a3.13,3.13,0,0,0-.33-1.06,2,2,0,0,0-.73-.79A2.43,2.43,0,0,0,42.48,27.82Z"/><path class="cls-1" d="M62.67,27.5a15.12,15.12,0,0,1,2.93,2,13.94,13.94,0,0,1,2.19,2.32,10.07,10.07,0,0,1,1.37,2.49,7.1,7.1,0,0,1,.47,2.47,4.64,4.64,0,0,1-.87,2.75,7.65,7.65,0,0,1-2.29,2.07,11.66,11.66,0,0,1-3.22,1.29,15.66,15.66,0,0,1-3.66.44A11.7,11.7,0,0,1,56.87,43a8.72,8.72,0,0,1-2.4-.95,6.56,6.56,0,0,1-1.87-1.65A6.28,6.28,0,0,1,51.5,38a1.82,1.82,0,0,1,0-.35A1.74,1.74,0,0,1,52,36.37a1.55,1.55,0,0,1,1.13-.52,2.39,2.39,0,0,1,.65.11.88.88,0,0,1,.56.48,3.82,3.82,0,0,0,1,1.16,6.67,6.67,0,0,0,1.41.87,8,8,0,0,0,1.65.56,7.23,7.23,0,0,0,1.7.2,8,8,0,0,0,1.65-.16,4.73,4.73,0,0,0,1.4-.51,2.78,2.78,0,0,0,1-.88,2.32,2.32,0,0,0,.35-1.32,5.27,5.27,0,0,0-.61-2.52,9.34,9.34,0,0,0-1.6-2.14A16.37,16.37,0,0,0,60,29.87q-1.25-.84-2.49-1.62a1.76,1.76,0,0,1-.4-.47,1.37,1.37,0,0,1-.27-.79.78.78,0,0,1,.16-.51,14.18,14.18,0,0,1,1-1.16,11.45,11.45,0,0,1,1.21-1.09,5.84,5.84,0,0,1,1.39-.8,4,4,0,0,1,1.56-.31,3.57,3.57,0,0,1,1.1.16,3,3,0,0,1,.86.42,2.24,2.24,0,0,1,.55.56,1,1,0,0,1,.2.58,1.54,1.54,0,0,1-.18.72,3.49,3.49,0,0,1-.5.68,8.89,8.89,0,0,1-.7.64Z"/><path class="cls-1" d="M83.43,23.07a4.57,4.57,0,0,1,3.33,1.07,4,4,0,0,1,1.1,3,5.37,5.37,0,0,1-.59,2.36,8,8,0,0,1-2,2.52,21.64,21.64,0,0,1-3.88,2.6,44.88,44.88,0,0,1-6.08,2.67,1.79,1.79,0,0,0,.83,1.23,3.49,3.49,0,0,0,1.85.44,10.72,10.72,0,0,0,2.65-.36,24,24,0,0,0,2.79-.93c.93-.38,1.82-.78,2.7-1.22s1.67-.86,2.38-1.25l1.77-1c.48-.29.79-.47,1-.54a1.12,1.12,0,0,1,.45-.19l.36,0a1,1,0,0,1,.54.14,1.71,1.71,0,0,1,.36.35,1.12,1.12,0,0,1,.2.43,1.55,1.55,0,0,1,.06.39,3.36,3.36,0,0,1-.06.58,1.65,1.65,0,0,1-.4.76c-.09.09-.39.34-.9.73s-1.17.86-2,1.4-1.75,1.1-2.81,1.7a32.3,32.3,0,0,1-3.39,1.65,26.63,26.63,0,0,1-3.72,1.25,15.22,15.22,0,0,1-3.81.5,6.4,6.4,0,0,1-2.86-.62A6.52,6.52,0,0,1,71.12,41a7.59,7.59,0,0,1-1.33-2.42,9.13,9.13,0,0,1-.46-2.87,8.3,8.3,0,0,1,.46-2.54,13.21,13.21,0,0,1,1.32-2.78,17.19,17.19,0,0,1,2.1-2.73A15.93,15.93,0,0,1,76,25.32a14.88,14.88,0,0,1,3.43-1.64A12.61,12.61,0,0,1,83.43,23.07Zm-1,3.7a1.06,1.06,0,0,0-.24,0H82a4.5,4.5,0,0,0-1.9.4,6.43,6.43,0,0,0-1.63,1.06,8.48,8.48,0,0,0-1.31,1.49c-.39.55-.73,1.11-1,1.65a14.86,14.86,0,0,0-.76,1.57,12.65,12.65,0,0,0-.47,1.26c.62-.32,1.27-.68,1.94-1.1s1.31-.8,1.9-1.18,1.1-.71,1.54-1,.75-.51.93-.62a5.62,5.62,0,0,0,1.66-1.41,2.06,2.06,0,0,0,.46-1.14.84.84,0,0,0-.26-.64A1.13,1.13,0,0,0,82.47,26.77Z"/></svg>